<svg xmlns="http://www.w3.org/2000/svg" xmlns:xlink="http://www.w3.org/1999/xlink" id="Layer_1" width="1920" height="1200" x="0" y="0" enable-background="new 0 0 1920 1200" version="1.1" viewBox="0 0 1920 1200" xml:space="preserve"><g xmlns="http://www.w3.org/2000/svg" fill="none" stroke="none" stroke-dashoffset="0" stroke-linecap="butt" stroke-linejoin="miter" stroke-miterlimit="10" stroke-width="none" font-family="sans-serif" font-size="12" font-weight="normal" mix-blend-mode="normal" text-anchor="start"><image xmlns:xlink="http://www.w3.org/1999/xlink" width="1920" height="1200" x="0" y="-60" stroke-width="1" xlink:href="http://localhost:8000/webclient/static/tag_images/frame0011.jpg"/><path fill="gray" stroke="#ff0" stroke-width="3" d="M499.79203,147c0,-33.25195 26.95603,-60.20797 60.20797,-60.20797c33.25195,0 60.20797,26.95603 60.20797,60.20797c0,33.25195 -26.95603,60.20797 -60.20797,60.20797c-33.25195,0 -60.20797,-26.95603 -60.20797,-60.20797z" opacity=".3"/><path fill="gray" stroke="#ff0" stroke-width="3" d="M660.2599,186.5c0,-64.47377 52.26632,-116.7401 116.7401,-116.7401c64.47377,0 116.7401,52.26632 116.7401,116.7401c0,64.47377 -52.26632,116.7401 -116.7401,116.7401c-64.47377,0 -116.7401,-52.26632 -116.7401,-116.7401z" opacity=".3"/><path fill="gray" stroke="#ff0" stroke-width="3" d="M283.49846,314c0,-44.73592 36.26563,-81.00154 81.00154,-81.00154c44.73592,0 81.00154,36.26563 81.00154,81.00154c0,44.73592 -36.26563,81.00154 -81.00154,81.00154c-44.73592,0 -81.00154,-36.26563 -81.00154,-81.00154z" opacity=".3"/></g></svg>